<?xml version="1.0" encoding="UTF-8"?>
<svg id="Capa_2" data-name="Capa 2" xmlns="http://www.w3.org/2000/svg" xmlns:xlink="http://www.w3.org/1999/xlink" viewBox="0 0 1098.67 312">
  <defs>
    <style>
      .cls-1 {
        fill: #fff;
      }

      .cls-2 {
        fill: none;
      }

      .cls-3 {
        clip-path: url(#clippath-1);
      }

      .cls-4 {
        clip-path: url(#clippath);
      }
    </style>
    <clipPath id="clippath">
      <rect class="cls-2" x="4" width="1094.67" height="148"/>
    </clipPath>
    <clipPath id="clippath-1">
      <rect class="cls-2" y="154.67" width="665.33" height="157.33"/>
    </clipPath>
  </defs>
  <g id="Capa_1-2" data-name="Capa 1">
    <g class="cls-4">
      <g>
        <path class="cls-1" d="M81.47,59.21c4.34.61,8.23,1.85,11.65,3.73,3.42,1.86,6.1,4.53,8.06,8,1.97,3.46,2.96,7.93,2.96,13.42,0,8.68-2.8,15.54-8.4,20.56-5.58,5.02-13.91,7.52-24.98,7.52H14.26V9.23h57.58c7.34,0,13.3,1.14,17.85,3.42,4.55,2.28,7.86,5.35,9.94,9.23,2.07,3.88,3.1,8.15,3.1,12.81,0,7.54-2.07,13.2-6.21,16.98-4.14,3.78-9.16,6.29-15.06,7.54ZM64.86,27.09h-27.02v24.67h26.25c5.17,0,8.78-1.14,10.85-3.42,2.07-2.28,3.1-5.28,3.1-9,0-3.93-.99-6.95-2.96-9.06-1.96-2.13-5.37-3.19-10.23-3.19ZM65.49,94.44c5.28,0,8.95-1.26,11.02-3.79,2.07-2.54,3.1-5.73,3.1-9.56,0-4.14-1.17-7.42-3.5-9.85-2.33-2.43-6.34-3.65-12.02-3.65h-26.25v26.85h27.65Z"/>
        <path class="cls-1" d="M143.07,93.67h48.27v18.77h-72.02V9.23h23.75v84.44Z"/>
        <path class="cls-1" d="M255.73,115.09c-9.93,0-18.36-1.47-25.29-4.42-6.93-2.96-12.55-6.94-16.85-11.96-4.29-5.03-7.43-10.8-9.4-17.31-1.96-6.51-2.94-13.34-2.94-20.48s.98-13.79,2.94-20.25c1.97-6.47,5.1-12.27,9.4-17.4,4.3-5.13,9.92-9.19,16.85-12.19,6.93-3,15.36-4.5,25.29-4.5s18.33,1.5,25.21,4.5c6.89,3,12.48,7.06,16.77,12.19,4.3,5.13,7.44,10.93,9.4,17.4,1.97,6.46,2.96,13.21,2.96,20.25s-.99,13.95-2.96,20.42c-1.96,6.46-5.09,12.22-9.4,17.29-4.29,5.07-9.89,9.08-16.77,12.04-6.88,2.94-15.28,4.42-25.21,4.42ZM225.94,60.92c0,7.45.9,13.76,2.71,18.94,1.82,5.17,4.9,9.1,9.23,11.79,4.34,2.68,10.3,4.02,17.85,4.02s13.51-1.34,17.85-4.02c4.34-2.69,7.42-6.63,9.23-11.79,1.82-5.18,2.73-11.49,2.73-18.94s-.91-14.08-2.73-19.25c-1.81-5.18-4.89-9.11-9.23-11.79-4.35-2.69-10.3-4.04-17.85-4.04s-13.51,1.35-17.85,4.04c-4.33,2.68-7.41,6.61-9.23,11.79-1.81,5.17-2.71,11.58-2.71,19.25Z"/>
        <path class="cls-1" d="M378.02,115.09c-9.72,0-18-1.45-24.83-4.35s-12.4-6.86-16.69-11.88c-4.29-5.01-7.45-10.78-9.48-17.29-2.02-6.53-3.02-13.41-3.02-20.65s1.01-13.96,3.02-20.48c2.03-6.53,5.19-12.32,9.48-17.4,4.29-5.07,9.88-9.07,16.75-12.02,6.89-2.96,15.19-4.44,24.92-4.44,11.9,0,21.55,1.64,28.94,4.9,7.4,3.25,12.96,8.08,16.69,14.5,3.73,6.42,5.96,14.33,6.69,23.75h-24.21c-.72-7.65-3.16-13.55-7.29-17.69-4.14-4.14-10.97-6.21-20.5-6.21-10.35,0-17.91,2.95-22.67,8.85-4.75,5.89-7.13,14.64-7.13,26.23s2.25,20.02,6.75,25.92c4.5,5.89,11.92,8.83,22.27,8.83s17.07-2.15,21.42-6.44c4.34-4.29,6.83-10.47,7.46-18.54h24.35c-.72,9.93-2.93,18.18-6.6,24.75-3.67,6.57-9.25,11.49-16.75,14.75s-17.35,4.9-29.56,4.9Z"/>
        <path class="cls-1" d="M502.01,52.84l40.67,58.35v1.25h-28.25l-28.25-42.38-16.46,18v24.38h-23.58V9.23h23.58v48.58l41.46-48.58h30.73l-39.9,43.6Z"/>
        <path class="cls-1" d="M608.31,115.09c-9.72,0-18-1.45-24.83-4.35s-12.4-6.86-16.69-11.88c-4.29-5.01-7.45-10.78-9.48-17.29-2.02-6.53-3.02-13.41-3.02-20.65s1.01-13.96,3.02-20.48c2.03-6.53,5.19-12.32,9.48-17.4,4.29-5.07,9.88-9.07,16.75-12.02,6.89-2.96,15.19-4.44,24.92-4.44,11.9,0,21.55,1.64,28.94,4.9,7.4,3.25,12.96,8.08,16.69,14.5,3.73,6.42,5.96,14.33,6.69,23.75h-24.21c-.72-7.65-3.16-13.55-7.29-17.69-4.14-4.14-10.97-6.21-20.5-6.21-10.35,0-17.91,2.95-22.67,8.85-4.75,5.89-7.13,14.64-7.13,26.23s2.25,20.02,6.75,25.92c4.5,5.89,11.92,8.83,22.27,8.83s17.07-2.15,21.42-6.44c4.34-4.29,6.83-10.47,7.46-18.54h24.35c-.72,9.93-2.93,18.18-6.6,24.75-3.67,6.57-9.25,11.49-16.75,14.75s-17.35,4.9-29.56,4.9Z"/>
        <path class="cls-1" d="M747.2,9.23h23.6v103.21h-23.6v-43.46h-47.33v43.46h-23.44V9.23h23.44v41.27h47.33V9.23Z"/>
        <path class="cls-1" d="M869.18,112.44l-7.46-21.1h-46.25l-7.46,21.1h-23.75l36.33-103.21h36l36.31,103.21h-23.73ZM821.83,73.17h33.54l-16.77-47.65-16.77,47.65Z"/>
        <path class="cls-1" d="M968.18,27.86h-19.08v65.81h19.08v18.77h-61.77v-18.77h19.08V27.86h-19.08V9.23h61.77v18.63Z"/>
        <path class="cls-1" d="M1063.46,9.23h22.67v103.21h-39.13l-32.27-70.46c-1.14-2.69-2.2-5.36-3.19-8-.99-2.64-1.89-5.25-2.71-7.83v86.29h-22.67V9.23h39.1l32.6,71.54c.93,2.18,1.89,4.54,2.88,7.08.98,2.53,1.89,5.14,2.71,7.81V9.23Z"/>
      </g>
    </g>
    <g class="cls-3">
      <g>
        <path class="cls-1" d="M63.52,281.16c-10.02,0-18.54-1.49-25.58-4.46-7.03-2.98-12.76-7.06-17.19-12.23-4.42-5.17-7.67-11.1-9.75-17.81-2.07-6.72-3.1-13.81-3.1-21.27s1.03-14.38,3.1-21.08c2.08-6.72,5.33-12.69,9.75-17.92,4.43-5.22,10.19-9.34,17.27-12.38,7.09-3.04,15.65-4.56,25.67-4.56,12.25,0,22.18,1.68,29.79,5.04,7.63,3.35,13.35,8.33,17.19,14.94,3.84,6.6,6.14,14.75,6.88,24.46h-24.94c-.74-7.89-3.24-13.96-7.5-18.23-4.27-4.26-11.3-6.4-21.1-6.4-10.66,0-18.43,3.04-23.33,9.13-4.91,6.07-7.35,15.07-7.35,27s2.32,20.62,6.96,26.69c4.64,6.07,12.28,9.1,22.94,9.1s17.57-2.21,22.04-6.63c4.48-4.42,7.05-10.78,7.69-19.1h25.08c-.74,10.24-3,18.74-6.79,25.5-3.78,6.77-9.54,11.83-17.27,15.19-7.72,3.34-17.87,5.02-30.44,5.02Z"/>
        <path class="cls-1" d="M157.96,259.11h59.63v19.33h-83.92v-106.29h83.44v19.19h-59.15v23.81h54.35v18.06h-54.35v25.9Z"/>
        <path class="cls-1" d="M314.43,172.16h23.33v106.29h-40.29l-33.23-72.56c-1.18-2.78-2.28-5.52-3.29-8.23-1.02-2.72-1.95-5.42-2.79-8.08v88.88h-23.33v-106.29h40.27l33.56,73.69c.96,2.24,1.94,4.66,2.96,7.27,1.01,2.61,1.95,5.3,2.81,8.06v-89.02Z"/>
        <path class="cls-1" d="M446.6,172.16v19.19h-35.02v87.1h-24.29v-87.1h-35v-19.19h94.31Z"/>
        <path class="cls-1" d="M485.42,259.11h59.63v19.33h-83.92v-106.29h83.44v19.19h-59.15v23.81h54.35v18.06h-54.35v25.9Z"/>
        <path class="cls-1" d="M650.68,252.55v7.19c0,4.38.21,7.95.63,10.73.43,2.77.91,5.43,1.44,7.98h-24.29c-.64-1.92-1.15-4.36-1.52-7.35-.38-2.98-.56-6.66-.56-11.02v-5.6c0-5.96-1.63-10.3-4.88-13.02-3.25-2.72-7.54-4.08-12.85-4.08h-21.9v41.08h-24.46v-106.29h56.1c11.72,0,20.51,2.7,26.38,8.08,5.86,5.38,8.79,12.38,8.79,21,0,7.46-2.14,13.62-6.4,18.48-4.27,4.85-9.54,7.96-15.83,9.33,3.63.86,6.9,2.18,9.83,3.94,2.93,1.75,5.25,4.18,6.96,7.27,1.71,3.08,2.56,7.18,2.56,12.29ZM612.95,219.95c5.54,0,9.46-1.3,11.75-3.92,2.29-2.61,3.44-6.36,3.44-11.27,0-4.47-1.2-7.88-3.6-10.23-2.39-2.34-6.25-3.52-11.58-3.52h-26.21v28.94h26.21Z"/>
      </g>
    </g>
  </g>
</svg>